<svg xmlns="http://www.w3.org/2000/svg" width="24" height="24" viewBox="0 0 24 24"><g id="Layer_8" data-name="Layer 8"><circle cx="13.22" cy="12.98" r="6.19" fill="#b795f3"/><path d="M11.72,18.87a7.23,7.23,0,0,1-7-5.46,7.23,7.23,0,0,1,2.84-7,7.75,7.75,0,0,1,7.75-.91.47.47,0,0,1-.37.86,6.81,6.81,0,0,0-6.81.79,6.36,6.36,0,0,0-2.5,6.11,6.27,6.27,0,0,0,7,4.65,6.37,6.37,0,0,0,5.29-6.06.44.44,0,0,1,.49-.45.47.47,0,0,1,.44.49,7.3,7.3,0,0,1-6.07,6.94A7.28,7.28,0,0,1,11.72,18.87Z" fill="#f8f8f2"/><path d="M11.73,15.5a.53.53,0,0,1-.47-.57V9.27a.48.48,0,1,1,.94,0v5.66A.53.53,0,0,1,11.73,15.5Z" fill="#f8f8f2"/><line x1="8.9" y1="12.1" x2="14.56" y2="12.1" fill="#f8f8f2"/><path d="M15.13,12.1a.53.53,0,0,1-.57.47H8.9a.52.52,0,0,1-.57-.47.53.53,0,0,1,.57-.48h5.66A.54.54,0,0,1,15.13,12.1Z" fill="#f8f8f2"/></g></svg>