<svg xmlns="http://www.w3.org/2000/svg" width="24" height="24" viewBox="0 0 24 24"><g id="Layer_4" data-name="Layer 4"><rect x="6.69" y="4.99" width="10.35" height="15.04" rx="1.48" fill="#b795f3"/><path d="M15.73,19.05H6.25a.43.43,0,0,1-.43-.43V4a.43.43,0,0,1,.43-.43h7.36A.43.43,0,0,1,14,4a.43.43,0,0,1-.43.43H6.68V18.19h8.61V9.69a.44.44,0,0,1,.87,0v8.93A.43.43,0,0,1,15.73,19.05Z" fill="#f8f8f3"/><path d="M13.8,8.47h0l-5.63,0A.21.21,0,0,1,8,8.22.21.21,0,0,1,8.17,8h0L13.8,8a.21.21,0,0,1,.21.22A.21.21,0,0,1,13.8,8.47Z" fill="#f8f8f3"/><path d="M13.8,10.37h0l-5.63,0A.21.21,0,0,1,8,10.12a.21.21,0,0,1,.21-.22h0l5.63,0a.21.21,0,0,1,.21.22A.21.21,0,0,1,13.8,10.37Z" fill="#f8f8f3"/><path d="M13.8,12.27h0l-5.63,0A.21.21,0,0,1,8,12a.21.21,0,0,1,.21-.21h0l5.63,0a.21.21,0,0,1,.21.22A.21.21,0,0,1,13.8,12.27Z" fill="#f8f8f3"/><path d="M13.8,14.18h0l-5.63,0A.21.21,0,0,1,8,13.92a.21.21,0,0,1,.21-.21h0l5.63,0A.21.21,0,0,1,14,14,.21.21,0,0,1,13.8,14.18Z" fill="#f8f8f3"/><path d="M13.8,16.08h0L8.17,16A.21.21,0,0,1,8,15.82a.21.21,0,0,1,.21-.21h0l5.63,0a.21.21,0,0,1,.21.21A.21.21,0,0,1,13.8,16.08Z" fill="#f8f8f3"/><path d="M17.75,6.39H14.56a.44.44,0,0,1,0-.87h3.19a.44.44,0,0,1,0,.87Z" fill="#f8f8f3"/><path d="M16.15,8a.43.43,0,0,1-.43-.43V4.36a.43.43,0,0,1,.43-.43.43.43,0,0,1,.43.43V7.55A.43.43,0,0,1,16.15,8Z" fill="#f8f8f3"/></g></svg>