<svg xmlns="http://www.w3.org/2000/svg" width="24" height="24" viewBox="0 0 24 24"><g id="Layer_6" data-name="Layer 6"><path d="M7.69,16.13C7.56,15.58,7.37,15,7.06,15c-.63-.08-1.81,1.8-1.41,3.21s2.56,2,3.94,2.35c.43.1,6.26,1.4,8.18-1.52.91-1.38.73-3.38.33-3.52-.22-.07-.44.45-1.22,1a5.41,5.41,0,0,1-1.83.75,8.37,8.37,0,0,1-4.77.21A7.39,7.39,0,0,1,7.69,16.13Z" fill="#b795f3"/><path d="M12.38,7.06a5.15,5.15,0,0,1-.56,0A7.93,7.93,0,0,1,9.6,6.6,2.35,2.35,0,0,1,8.07,4.11,1.58,1.58,0,0,1,8.75,3a1.64,1.64,0,0,1,1.42-.05,6,6,0,0,0,3.42.42c.37-.07.72-.16,1.05-.25,1-.24,1.79-.45,2.33-.07a1.35,1.35,0,0,1,.49,1c.1,1.23-1.17,2-1.94,2.34l-.08.06A8.75,8.75,0,0,1,12.38,7.06ZM9.44,3.33a.82.82,0,0,0-.42.1,1.06,1.06,0,0,0-.43.76,1.8,1.8,0,0,0,1.2,1.92h0a6.89,6.89,0,0,0,2.06.41,7.68,7.68,0,0,0,3-.36h0l.12,0c.46-.17,2.11-.85,2-2a.87.87,0,0,0-.28-.68c-.33-.24-1.05-.06-1.89.16-.34.08-.7.18-1.07.25A6.69,6.69,0,0,1,10,3.44,1.54,1.54,0,0,0,9.44,3.33Z" fill="#f8f8f2"/><path d="M12.21,18c-2.58,0-4.29-.71-5.08-2.14C5.26,12.51,9.3,6.46,9.48,6.21a.26.26,0,1,1,.43.29c0,.06-4,6-2.32,9.13.74,1.34,2.48,2,5.16,1.86s4.19-.79,4.88-2.09c1.39-2.59-1.31-7-2.2-8.47-.36-.59-.4-.65-.31-.81A.27.27,0,0,1,15.47,6a.26.26,0,0,1,.13.19l.28.46c1,1.68,3.74,6.13,2.21,9-.79,1.47-2.58,2.26-5.32,2.36Z" fill="#f8f8f2"/><path d="M12.59,14a2.4,2.4,0,0,1-.84-.15,1.61,1.61,0,0,1-.62-.36l.17-.32a1.62,1.62,0,0,0,.55.34,2.06,2.06,0,0,0,.74.13,1.65,1.65,0,0,0,.6-.09.65.65,0,0,0,.34-.25.54.54,0,0,0,.11-.35.48.48,0,0,0-.13-.36.93.93,0,0,0-.34-.23,4.41,4.41,0,0,0-.47-.14l-.52-.13a2.2,2.2,0,0,1-.47-.19,1,1,0,0,1-.35-.31.88.88,0,0,1-.13-.51,1,1,0,0,1,.15-.53,1.12,1.12,0,0,1,.48-.39,1.89,1.89,0,0,1,.81-.15,2.5,2.5,0,0,1,.66.09,1.92,1.92,0,0,1,.56.26l-.14.33a1.89,1.89,0,0,0-.54-.25,2.08,2.08,0,0,0-.54-.08,1.37,1.37,0,0,0-.58.1.71.71,0,0,0-.34.25.59.59,0,0,0-.11.36.49.49,0,0,0,.13.37.78.78,0,0,0,.35.22,4.41,4.41,0,0,0,.47.14l.51.14a2.87,2.87,0,0,1,.47.18,1,1,0,0,1,.35.31.84.84,0,0,1,.13.5.94.94,0,0,1-.16.53,1.09,1.09,0,0,1-.47.39A2,2,0,0,1,12.59,14Zm-.12.63V9.37h.28v5.26Z" fill="#f8f8f2"/><path d="M12.75,14.76h-.28a.13.13,0,0,1-.13-.13v-.51a2.23,2.23,0,0,1-.63-.15,1.72,1.72,0,0,1-.67-.39.12.12,0,0,1,0-.15l.16-.32a.13.13,0,0,1,.09-.07.16.16,0,0,1,.12,0,1.49,1.49,0,0,0,.51.32,2.18,2.18,0,0,0,.44.11V12.27l-.19,0a2.09,2.09,0,0,1-.5-.2,1.16,1.16,0,0,1-.4-.36,1,1,0,0,1-.15-.58,1.16,1.16,0,0,1,.17-.6A1.3,1.3,0,0,1,11.8,10a1.64,1.64,0,0,1,.54-.14V9.37a.13.13,0,0,1,.13-.13h.28a.13.13,0,0,1,.13.13v.52a2.11,2.11,0,0,1,.49.09,1.88,1.88,0,0,1,.59.27.14.14,0,0,1,0,.16l-.14.33a.18.18,0,0,1-.08.07.14.14,0,0,1-.11,0,1.73,1.73,0,0,0-.5-.23,1.59,1.59,0,0,0-.3-.06v1.23l.26.07a2.39,2.39,0,0,1,.49.2,1,1,0,0,1,.4.35,1,1,0,0,1,.15.57,1.11,1.11,0,0,1-.18.6,1.18,1.18,0,0,1-.53.44,1.89,1.89,0,0,1-.59.14v.52A.13.13,0,0,1,12.75,14.76Zm-.15-.26h0v-.37h0Zm0-.73v.1h0v-.1Zm-1.31-.31a1.53,1.53,0,0,0,.51.27,2.36,2.36,0,0,0,.54.12v-.09a2,2,0,0,1-.53-.13,1.74,1.74,0,0,1-.47-.26Zm1.59.3v.09a1.53,1.53,0,0,0,.48-.12,1.07,1.07,0,0,0,.43-.34.84.84,0,0,0,.13-.46.78.78,0,0,0-.11-.43.77.77,0,0,0-.3-.26,2.53,2.53,0,0,0-.44-.18L12.88,12v.13l.33.1a1.07,1.07,0,0,1,.4.26.62.62,0,0,1,.16.45.73.73,0,0,1-.13.43.89.89,0,0,1-.4.29A1.58,1.58,0,0,1,12.88,13.76Zm-.28-1.43v1.18h0V12.34Zm.28.08V13.5a1.38,1.38,0,0,0,.26-.07.65.65,0,0,0,.29-.2.51.51,0,0,0,.08-.28.37.37,0,0,0-.09-.27.7.7,0,0,0-.3-.19Zm-.28-.35h0v-.13h0Zm-.26-1.9a1.35,1.35,0,0,0-.43.12.91.91,0,0,0-.42.34.94.94,0,0,0-.13.46.79.79,0,0,0,.11.44,1,1,0,0,0,.3.27,2.34,2.34,0,0,0,.45.18l.12,0v-.13l-.27-.08a1.11,1.11,0,0,1-.4-.26.63.63,0,0,1-.16-.46.73.73,0,0,1,.13-.43.83.83,0,0,1,.4-.3,1.32,1.32,0,0,1,.3-.09Zm.26,1.51h0V10.49h0Zm-.26-1.15a.66.66,0,0,0-.2.06.52.52,0,0,0-.28.21.45.45,0,0,0-.09.28.39.39,0,0,0,.09.28.77.77,0,0,0,.3.19l.18.06Zm.54-.28.37.07a2.44,2.44,0,0,1,.44.19l0-.09a1.57,1.57,0,0,0-.44-.18,1.86,1.86,0,0,0-.41-.08Zm-.28-.1v.09h0v-.09Zm0-.64v.38h0V9.5Z" fill="#f8f8f2"/><path d="M10.06,4a5.17,5.17,0,0,0,2.2.7,5.26,5.26,0,0,0,2.9-.6,1.77,1.77,0,0,1-.28.68,2,2,0,0,1-.76.63,3.38,3.38,0,0,1-2.81.14,1.91,1.91,0,0,1-1-.79A1.68,1.68,0,0,1,10.06,4Z" fill="#f8f8f2"/><path d="M12.54,5.93a3.37,3.37,0,0,1-1.26-.25,2,2,0,0,1-1.08-.84A1.63,1.63,0,0,1,10,4,.07.07,0,0,1,10,4a.09.09,0,0,1,.1,0,5.08,5.08,0,0,0,2.16.69,5.19,5.19,0,0,0,2.85-.6.12.12,0,0,1,.1,0,.12.12,0,0,1,0,.1,2.16,2.16,0,0,1-.3.72,2.25,2.25,0,0,1-.8.66A3.52,3.52,0,0,1,12.54,5.93ZM10.17,4.21a1.58,1.58,0,0,0,.19.54,1.86,1.86,0,0,0,1,.75,3.29,3.29,0,0,0,2.73-.13,2,2,0,0,0,.72-.6A1.88,1.88,0,0,0,15,4.32a5.39,5.39,0,0,1-2.76.52A5.39,5.39,0,0,1,10.17,4.21Z" fill="#f8f8f2"/></g></svg>