<svg xmlns="http://www.w3.org/2000/svg" width="24" height="24" viewBox="0 0 24 24"><g id="Layer_11" data-name="Layer 11"><rect x="3.1" y="5.26" width="17.8" height="5.11" rx="1.07" fill="#b795f3"/><path d="M14,19a.3.3,0,0,1-.15,0l-1.34-1-1.55.88a.24.24,0,0,1-.27,0l-1.26-.91-1.7.86a.25.25,0,0,1-.26,0l-1.22-.91-1.41.94a.27.27,0,0,1-.26,0,.26.26,0,0,1-.13-.22V8.51a.25.25,0,0,1,.25-.25H19a.25.25,0,0,1,.25.25V18.58a.26.26,0,0,1-.14.22.27.27,0,0,1-.26,0L17.78,18l-1,.83a.24.24,0,0,1-.3,0L15.26,18l-1.12.95A.23.23,0,0,1,14,19Zm-1.47-1.56a.24.24,0,0,1,.14.05l1.32.94,1.12-1a.25.25,0,0,1,.3,0l1.21.83,1-.84a.25.25,0,0,1,.31,0l.85.63V8.76H4.93v9.35l1.17-.78a.28.28,0,0,1,.29,0l1.24.93,1.69-.85a.25.25,0,0,1,.26,0l1.25.9,1.55-.88A.28.28,0,0,1,12.51,17.43Z" fill="#f8f8f2"/><path d="M14.45,10.86H6.17a.25.25,0,0,1-.25-.25.25.25,0,0,1,.25-.25h8.28a.25.25,0,0,1,.25.25A.25.25,0,0,1,14.45,10.86Z" fill="#f8f8f2"/><path d="M17.4,13.53H6.17a.25.25,0,0,1-.25-.25A.25.25,0,0,1,6.17,13H17.4a.25.25,0,0,1,.25.25A.25.25,0,0,1,17.4,13.53Z" fill="#f8f8f2"/><path d="M17.4,15.92H6.17a.25.25,0,0,1-.25-.25.25.25,0,0,1,.25-.25H17.4a.25.25,0,0,1,.25.25A.25.25,0,0,1,17.4,15.92Z" fill="#f8f8f2"/><path d="M16.87,12.14h-.15a.13.13,0,0,1-.13-.12v-.23l-.3-.07a1.07,1.07,0,0,1-.38-.23.16.16,0,0,1,0-.15l.09-.17a.11.11,0,0,1,.09-.06.11.11,0,0,1,.11,0,.83.83,0,0,0,.25.16l.16,0v-.55l-.06,0a.86.86,0,0,1-.28-.11.74.74,0,0,1-.23-.2.63.63,0,0,1-.09-.35.64.64,0,0,1,.1-.35.73.73,0,0,1,.31-.26.91.91,0,0,1,.25-.07V9.2a.13.13,0,0,1,.13-.13h.15A.12.12,0,0,1,17,9.2v.22l.22.05a1.17,1.17,0,0,1,.34.15.11.11,0,0,1,0,.15l-.07.18a.18.18,0,0,1-.08.07.2.2,0,0,1-.11,0,.58.58,0,0,0-.25-.12l-.09,0v.55l.1,0,.28.11a.74.74,0,0,1,.23.2.67.67,0,0,1,0,.69.72.72,0,0,1-.31.26,1.11,1.11,0,0,1-.29.08V12A.12.12,0,0,1,16.87,12.14ZM17,10.9v.44l.07,0a.25.25,0,0,0,.13-.09.2.2,0,0,0,0-.11.22.22,0,0,0,0-.12l-.14-.08Zm-.4-1h0a.34.34,0,0,0-.13.1.21.21,0,0,0,0,.12.18.18,0,0,0,0,.11.48.48,0,0,0,.14.09h0Z" fill="#f8f8f2"/></g></svg>