<svg xmlns="http://www.w3.org/2000/svg" width="24" height="24" viewBox="0 0 24 24"><g id="Layer_7" data-name="Layer 7"><rect x="4" y="4" width="16.01" height="16.01" rx="1.35" fill="#6273a4"/><line x1="5.4" y1="18.66" x2="18.36" y2="5.59" fill="#f8f8f2"/><path d="M5.4,19.15A.54.54,0,0,1,5.05,19a.5.5,0,0,1,0-.7L18,5.25a.48.48,0,0,1,.69,0,.49.49,0,0,1,0,.7L5.75,19A.5.5,0,0,1,5.4,19.15Z" fill="#f8f8f2"/><path d="M7.84,11.87a.46.46,0,0,1-.46-.45V6.9a.46.46,0,0,1,.46-.45.45.45,0,0,1,.45.45v4.52A.45.45,0,0,1,7.84,11.87Z" fill="#f8f8f2"/><path d="M10.1,9.61H5.58a.45.45,0,1,1,0-.9H10.1a.45.45,0,1,1,0,.9Z" fill="#f8f8f2"/><path d="M14,14.13s4.76,0,4.76,0" fill="#f8f8f2"/><path d="M18.72,14.54h0l-4.88,0a.48.48,0,0,1-.37-.19.42.42,0,0,1,.06-.52l.09-.06c.22,0,.2-.1,5.1-.07a.42.42,0,0,1,.41.42A.4.4,0,0,1,18.72,14.54Zm-4.35-.41h0Z" fill="#f8f8f2"/></g></svg>