<svg xmlns="http://www.w3.org/2000/svg" width="24" height="24" viewBox="0 0 24 24"><g id="Layer_7" data-name="Layer 7"><rect x="4" y="4" width="16.01" height="16.01" rx="1.35" fill="#b795f3"/><line x1="5.4" y1="18.66" x2="18.36" y2="5.59" fill="#f8f8f2"/><path d="M5.4,19.15A.54.54,0,0,1,5.05,19a.5.5,0,0,1,0-.7L18,5.25a.48.48,0,0,1,.69,0,.49.49,0,0,1,0,.7L5.75,19A.5.5,0,0,1,5.4,19.15Z" fill="#f8f8f2"/><path d="M7.62,10.8a.45.45,0,0,1-.45-.46V5.83a.46.46,0,0,1,.45-.46.47.47,0,0,1,.46.46v4.51A.46.46,0,0,1,7.62,10.8Z" fill="#f8f8f2"/><path d="M9.88,8.54H5.36a.45.45,0,0,1-.45-.45.46.46,0,0,1,.45-.46H9.88a.46.46,0,0,1,.45.46A.45.45,0,0,1,9.88,8.54Z" fill="#f8f8f2"/><path d="M13.55,15.17s4.76,0,4.76,0" fill="#f8f8f2"/><path d="M18.31,15.58h0l-4.88,0a.45.45,0,0,1-.36-.19.41.41,0,0,1,0-.52.24.24,0,0,1,.09-.06c.23,0,.2-.1,5.11-.07a.41.41,0,0,1,.4.41A.41.41,0,0,1,18.31,15.58ZM14,15.17h0Z" fill="#f8f8f2"/></g></svg>