<svg xmlns="http://www.w3.org/2000/svg" width="24" height="24" viewBox="0 0 24 24"><g id="Layer_10" data-name="Layer 10"><path d="M10.36,14.63H7.27c-1.93,0-2.87-.81-3-2.19A2.61,2.61,0,0,1,6.85,9.62a1.92,1.92,0,0,1,.34-1.71,1.91,1.91,0,0,1,1.57-.63,3.37,3.37,0,0,1,3.39-2.4,3.38,3.38,0,0,1,3,3.54,4,4,0,0,1,2.3.12,3.42,3.42,0,0,1,1.84,1.39,3.4,3.4,0,0,1,.26,2.85,3.17,3.17,0,0,1-.17.37,3.05,3.05,0,0,1-2.7,1.48H15" fill="#b795f3"/><path d="M12,9.23a.43.43,0,0,1,.33.17l2.47,3.45a.41.41,0,0,1-.1.57.39.39,0,0,1-.56-.1l-2.14-3-2.1,3a.41.41,0,0,1-.57.1.42.42,0,0,1-.1-.57l2.43-3.44A.48.48,0,0,1,12,9.23Z" fill="#f8f8f2"/><path d="M12,9.23h0a.41.41,0,0,1,.4.41l0,9.08a.41.41,0,0,1-.41.41h0a.4.4,0,0,1-.4-.41l0-9.08A.41.41,0,0,1,12,9.23Z" fill="#f8f8f2"/></g></svg>