<svg xmlns="http://www.w3.org/2000/svg" width="24" height="24" viewBox="0 0 24 24"><g id="Layer_10" data-name="Layer 10"><rect x="4.06" y="6.62" width="15.87" height="13.6" rx="1.53" fill="#6273a4"/><path d="M17.66,17.25H6.34A.38.38,0,0,1,6,16.88v-4.4a.38.38,0,0,1,.76,0v4H17.28v-4a.38.38,0,1,1,.76,0v4.4A.38.38,0,0,1,17.66,17.25Z" fill="#f8f8f2"/><path d="M12,14.66a.39.39,0,0,1-.33-.17L9.17,11a.4.4,0,0,1,.09-.56.41.41,0,0,1,.57.09l2.14,3,2.1-3a.41.41,0,1,1,.66.47L12.3,14.49A.47.47,0,0,1,12,14.66Z" fill="#f8f8f2"/><path d="M12,14.66h0a.41.41,0,0,1-.41-.41l0-9.08a.41.41,0,0,1,.41-.4h0a.4.4,0,0,1,.41.4l0,9.08A.4.4,0,0,1,12,14.66Z" fill="#f8f8f2"/></g></svg>