<svg xmlns="http://www.w3.org/2000/svg" width="24" height="24" viewBox="0 0 24 24"><g id="Layer_13" data-name="Layer 13"><rect x="5.29" y="4.14" width="15.72" height="15.72" rx="0.64" fill="#6273a4"/><path d="M17.55,16.1H9.07a.41.41,0,0,1-.38-.27L5.38,6.33H3a.4.4,0,0,1-.4-.4A.39.39,0,0,1,3,5.54H5.66A.4.4,0,0,1,6,5.8l3.31,9.5h8.2a.4.4,0,0,1,0,.8Z" fill="#f8f8f2"/><path d="M13.94,14.65l-4.06,0H8.55a.39.39,0,0,1-.37-.27C8,13.86,7.54,12.45,7.1,11c-.39-1.23-.88-2.84-1-3.51a.43.43,0,0,1,.08-.33A.42.42,0,0,1,6.46,7H20.87a.4.4,0,0,1,.32.17.36.36,0,0,1,0,.36l-.2.57c-.44,1-.92,2.15-1.38,3.28l0,.11c-.41,1-.82,2-1.2,2.86a.38.38,0,0,1-.35.23C16.45,14.64,15.16,14.65,13.94,14.65Zm-5.1-.83H9.89c2.84,0,4.73,0,7.91,0,.34-.78.71-1.68,1.08-2.59l0-.11c.47-1.15.95-2.33,1.38-3.29H7c.17.63.47,1.65.88,2.95S8.62,13.19,8.84,13.82Z" fill="#f8f8f2"/><path d="M9.92,18.77a1.17,1.17,0,1,1,1.16-1.17A1.17,1.17,0,0,1,9.92,18.77Zm0-1.7a.54.54,0,1,0,.53.53A.54.54,0,0,0,9.92,17.07Z" fill="#f8f8f2"/><path d="M16.7,18.77a1.17,1.17,0,1,1,1.17-1.17A1.17,1.17,0,0,1,16.7,18.77Zm0-1.7a.54.54,0,1,0,.54.53A.53.53,0,0,0,16.7,17.07Z" fill="#f8f8f2"/><path d="M7.47,11.3a.4.4,0,0,1-.39-.4.39.39,0,0,1,.39-.4l12-.06a.38.38,0,0,1,.4.4.39.39,0,0,1-.39.4l-12,.06Z" fill="#f8f8f2"/><path d="M13.15,14.65a.4.4,0,0,1-.4-.4V7.43a.4.4,0,1,1,.8,0v6.82A.4.4,0,0,1,13.15,14.65Z" fill="#f8f8f2"/></g></svg>