<svg xmlns="http://www.w3.org/2000/svg" width="24" height="24" viewBox="0 0 24 24"><g id="Layer_15" data-name="Layer 15"><rect x="3.72" y="4.65" width="16.55" height="16.55" rx="0.56" fill="#b795f3"/><polygon points="4.59 5.39 9.58 5.39 9.6 2.79 14.16 2.79 14.15 5.39 19.41 5.39 19.41 8.35 4.59 8.2 4.59 5.39" fill="none" stroke="#f8f8f2" stroke-linecap="round" stroke-linejoin="round" stroke-width="0.75"/><path d="M5.79,8.63H18.21a0,0,0,0,1,0,0V19.91a1.15,1.15,0,0,1-1.15,1.15H6.93a1.15,1.15,0,0,1-1.15-1.15V8.63a0,0,0,0,1,0,0Z" fill="none" stroke="#f8f8f2" stroke-linecap="round" stroke-linejoin="round" stroke-width="0.85"/><rect x="8.96" y="11.41" width="0.94" height="6.36" fill="none" stroke="#f8f8f2" stroke-linecap="round" stroke-linejoin="round" stroke-width="0.75"/><rect x="11.53" y="11.41" width="0.94" height="6.36" fill="none" stroke="#f8f8f2" stroke-linecap="round" stroke-linejoin="round" stroke-width="0.75"/><rect x="14.1" y="11.41" width="0.94" height="6.36" fill="none" stroke="#f8f8f2" stroke-linecap="round" stroke-linejoin="round" stroke-width="0.75"/></g></svg>