<svg xmlns="http://www.w3.org/2000/svg" width="96" height="96" viewBox="0 0 96 96"><g id="Layer_7" data-name="Layer 7"><g id="Layer_9" data-name="Layer 9"><rect x="25.41" y="18" width="0.67" height="2.57" rx="0.33" transform="translate(-6.33 16.86) rotate(-32.51)" fill="#51fa7b"/><path d="M26.26,20.6a.5.5,0,0,1-.43-.24l-1-1.6a.54.54,0,0,1-.06-.39.51.51,0,0,1,.93-.16l1,1.6a.52.52,0,0,1-.16.71h0A.53.53,0,0,1,26.26,20.6Zm-1-2.27a.13.13,0,0,0-.08,0,.14.14,0,0,0-.07.1.17.17,0,0,0,0,.12l1,1.6a.14.14,0,0,0,.21,0h0a.15.15,0,0,0,.05-.22l-1-1.6A.15.15,0,0,0,25.23,18.33Z" fill="#51fa7b"/><circle cx="29.47" cy="30.35" r="11.19" fill="#ffb86c"/><rect x="70.5" y="18.64" width="0.67" height="2.57" rx="0.33" transform="translate(1.48 -4.66) rotate(3.8)" fill="#51fa7b"/><path d="M70.77,21.38h0a.51.51,0,0,1-.35-.17.5.5,0,0,1-.13-.37l.13-1.9a.51.51,0,0,1,1,.06l-.13,1.91a.53.53,0,0,1-.17.35A.52.52,0,0,1,70.77,21.38Zm0-.35a.15.15,0,0,0,.11,0,.15.15,0,0,0,.06-.11l.12-1.9a.16.16,0,0,0-.14-.17.18.18,0,0,0-.17.15l-.13,1.9a.17.17,0,0,0,0,.12.16.16,0,0,0,.11.05Z" fill="#51fa7b"/><circle cx="67.28" cy="31.04" r="11.19" fill="#ffb86c"/><path d="M33.56,36s9-3.74,9.58-10.44c0,0,3.13,5.31,1,7.83S33.56,36,33.56,36Z" fill="#e29f61"/><path d="M30.85,32.32s4.55.09,6.17-3.45-2.12,6.46-2.12,6.46l-3.43.41-.62-3.42" fill="#e29f61"/></g><rect x="21.09" y="30.67" width="0.49" height="2.57" rx="0.25" transform="translate(-9.07 8.47) rotate(-18.59)" fill="#51fa7b"/><path d="M21.66,33.34a.4.4,0,0,1-.37-.27l-.67-2a.4.4,0,0,1,.25-.5.41.41,0,0,1,.51.25l.66,2a.4.4,0,0,1-.25.51h0ZM21,30.87h0l-.06,0a.11.11,0,0,0,0,.08l.66,2a.1.1,0,0,0,.12.06.09.09,0,0,0,.06-.12l-.66-2A.11.11,0,0,0,21,30.87Z" fill="#51fa7b"/></g><g id="Layer_5" data-name="Layer 5"><g id="Layer_3" data-name="Layer 3"><path d="M13,38.86a6,6,0,0,1,.7-3.86,3.47,3.47,0,0,1,1.64-1.55,8.45,8.45,0,0,1,4.56-.19h0a7,7,0,0,0,1.16,0h0a4.34,4.34,0,0,0,2.23-1.14c.1-.11.19-.23.28-.35A4.86,4.86,0,0,1,25.91,30a5.11,5.11,0,0,1,4.28.47,5.68,5.68,0,0,1,1.68,1.56A10.7,10.7,0,0,1,34,37.78a10.59,10.59,0,0,1-1.38,5.89A6.29,6.29,0,0,1,30.23,46a15.37,15.37,0,0,1-3,1.33,15.93,15.93,0,0,1-4.31.8,3.09,3.09,0,0,1-.43,0,13.1,13.1,0,0,1-5.63-2.08A10.83,10.83,0,0,1,13,38.86Z" fill="#f55"/><path d="M27.63,31.46l.82-.83s2.06,1.29,2.22,2.59Z" fill="#f8f8f2"/><path d="M30.67,33.34a.08.08,0,0,1-.07,0l-3-1.75a.15.15,0,0,1-.06-.09.14.14,0,0,1,0-.11l.82-.82a.14.14,0,0,1,.16,0c.08,0,2.11,1.33,2.27,2.67a.12.12,0,0,1-.06.12Zm-2.83-1.91L30.48,33a5.42,5.42,0,0,0-2-2.17Z" fill="#f8f8f2"/><path d="M27.88,32.16l1.59.89-.3.31-1.42-.84Z" fill="#f8f8f2"/><path d="M29.17,33.46h-.05l-1.42-.84a.1.1,0,0,1,0-.12l.13-.37a.09.09,0,0,1,.06-.06.08.08,0,0,1,.08,0l1.59.89a.09.09,0,0,1,.05.08.08.08,0,0,1,0,.08l-.29.31A.11.11,0,0,1,29.17,33.46Zm-1.29-1,1.27.75.15-.15-1.36-.77Z" fill="#f8f8f2"/></g><rect x="49.9" y="18.14" width="0.49" height="2.57" rx="0.25" transform="translate(7.88 -13.82) rotate(17.01)" fill="#51fa7b"/><path d="M49.84,20.82l-.12,0h0a.4.4,0,0,1-.26-.5l.61-2a.39.39,0,0,1,.49-.26.41.41,0,0,1,.24.19.4.4,0,0,1,0,.3l-.61,2a.43.43,0,0,1-.38.28Zm0-.31a.09.09,0,0,0,.07,0,.12.12,0,0,0,0-.05l.61-2a.22.22,0,0,0,0-.08.09.09,0,0,0-.06,0,.06.06,0,0,0-.07,0,.07.07,0,0,0,0,0l-.61,2A.09.09,0,0,0,49.81,20.51Z" fill="#51fa7b"/><rect x="71.05" y="30.08" width="0.49" height="2.57" rx="0.25" transform="translate(-6.57 29.47) rotate(-22.35)" fill="#51fa7b"/><path d="M71.69,32.73a.38.38,0,0,1-.36-.25l-.8-1.92a.4.4,0,0,1,.22-.52.4.4,0,0,1,.52.21l.79,1.93a.39.39,0,0,1,0,.3.4.4,0,0,1-.22.22h0Zm-.79-2.42h0a.1.1,0,0,0,0,.12l.8,1.93a.09.09,0,0,0,.12.05h0l0-.05a.08.08,0,0,0,0-.07L71,30.37A.1.1,0,0,0,70.9,30.31Z" fill="#51fa7b"/><g id="Layer_10" data-name="Layer 10"><path d="M39.37,20.21a6,6,0,0,1,2.81-2.74,3.43,3.43,0,0,1,2.24-.3,8.36,8.36,0,0,1,3.81,2.5h0a6.84,6.84,0,0,0,.92.7h0a4.34,4.34,0,0,0,2.48.37l.43-.12a5,5,0,0,1,2.91-.1,5.11,5.11,0,0,1,3.21,2.88,5.71,5.71,0,0,1,.45,2.24,10.54,10.54,0,0,1-6.17,9.86,6.27,6.27,0,0,1-3.28.54A16.05,16.05,0,0,1,46,35.41a16.35,16.35,0,0,1-4-1.87l-.34-.25a12.84,12.84,0,0,1-3.37-5A10.74,10.74,0,0,1,39.37,20.21Z" fill="#f55"/><path d="M55.55,22.69l1.15-.19s.92,2.24.3,3.38Z" fill="#f8f8f2"/><path d="M57,26h0a.14.14,0,0,1-.11-.07l-1.44-3.2a.11.11,0,0,1,0-.11.11.11,0,0,1,.09-.06l1.15-.2a.11.11,0,0,1,.13.08c0,.09.94,2.31.3,3.49A.14.14,0,0,1,57,26Zm-1.27-3.22L57,25.57a5.39,5.39,0,0,0-.37-2.93Z" fill="#f8f8f2"/><path d="M55.35,23.4l.77,1.65-.42.08L55,23.62Z" fill="#f8f8f2"/><path d="M55.7,25.24a.12.12,0,0,1-.1-.07l-.66-1.5a.11.11,0,0,1,0-.13l.32-.22a.15.15,0,0,1,.09,0,.09.09,0,0,1,.06.06c.26.55.52,1.1.77,1.65a.1.1,0,0,1-.07.14l-.42.08Zm-.54-1.58.6,1.35L56,25l-.66-1.41Z" fill="#f8f8f2"/><path d="M63.46,38.81a6,6,0,0,1,.44-3.9,3.55,3.55,0,0,1,1.54-1.66A8.4,8.4,0,0,1,70,32.77h0a7.2,7.2,0,0,0,1.15,0h0a4.26,4.26,0,0,0,2.14-1.29l.26-.36a4.89,4.89,0,0,1,2.19-1.92,5.1,5.1,0,0,1,4.31.19,5.7,5.7,0,0,1,1.77,1.44A10.52,10.52,0,0,1,83.3,42.32a6.27,6.27,0,0,1-2.2,2.51A16,16,0,0,1,74,47.43a3,3,0,0,1-.42,0,12.91,12.91,0,0,1-5.76-1.71A10.77,10.77,0,0,1,63.46,38.81Z" fill="#f55"/><path d="M77.55,30.46l.76-.88s2.14,1.15,2.38,2.43Z" fill="#f8f8f2"/><path d="M80.69,32.14h0L77.5,30.57a.12.12,0,0,1,0-.19l.76-.88a.14.14,0,0,1,.15,0c.09.05,2.2,1.2,2.45,2.52a.11.11,0,0,1,0,.12A.11.11,0,0,1,80.69,32.14Zm-2.94-1.72,2.74,1.36a5.39,5.39,0,0,0-2.15-2Z" fill="#f8f8f2"/><path d="M77.85,31.14l1.64.79-.28.33-1.47-.75Z" fill="#f8f8f2"/><path d="M79.21,32.36h0l-1.48-.74a.13.13,0,0,1,0-.13l.11-.37s0-.05,0-.06a.14.14,0,0,1,.09,0l1.64.78a.12.12,0,0,1,.06.08.08.08,0,0,1,0,.08l-.28.33A.09.09,0,0,1,79.21,32.36Zm-1.35-.9,1.33.67.13-.17-1.41-.67Z" fill="#f8f8f2"/><path d="M40.07,27.5s4.57,3.8,13.26,2.27-5,5-5,5Z" fill="#e04c4c"/></g></g><g id="Layer_6" data-name="Layer 6"><path d="M34.89,43.57a6.33,6.33,0,0,1-2.2-4.77,10.81,10.81,0,0,1,1.59-6.48A14.63,14.63,0,0,0,35.83,30c1.4-2.83.69-4.85,1.94-5.67a2.38,2.38,0,0,1,2-.18,1.3,1.3,0,0,1,.95,1.1A5.34,5.34,0,0,0,41.82,28c.61.72,1,.73,1.92,1.49a10.8,10.8,0,0,1,2.94,4.06,12.85,12.85,0,0,1,1.12,4.13,1.09,1.09,0,0,1,0,.18,8.32,8.32,0,0,1-3,6A7.94,7.94,0,0,1,38,45.12a8.37,8.37,0,0,1-2.63-1.18C35.21,43.82,35.05,43.69,34.89,43.57Z" fill="#dfe283"/><path d="M46.91,34.06,36.57,44.61a8.1,8.1,0,0,0,5.23.6A7.91,7.91,0,0,0,47,41.13,8.13,8.13,0,0,0,46.91,34.06Z" fill="#cece7c"/><rect x="38.32" y="22.08" width="0.67" height="2.57" rx="0.33" transform="translate(-5.43 13.54) rotate(-18.59)" fill="#51fa7b"/><path d="M39,24.78a.51.51,0,0,1-.48-.35l-.61-1.81a.51.51,0,0,1,1-.32l.61,1.81a.51.51,0,0,1-.32.64h0A.51.51,0,0,1,39,24.78Zm-.6-2.48H38.3a.15.15,0,0,0-.1.2l.61,1.81a.15.15,0,0,0,.19.1h0a.2.2,0,0,0,.1-.08.17.17,0,0,0,0-.12l-.6-1.81A.19.19,0,0,0,38.35,22.3Z" fill="#51fa7b"/><rect x="55.68" y="24.01" width="0.67" height="2.57" rx="0.33" transform="translate(6.27 -10.79) rotate(11.65)" fill="#51fa7b"/><path d="M55.82,26.74h-.1a.51.51,0,0,1-.4-.6l.39-1.87a.51.51,0,0,1,.6-.39.45.45,0,0,1,.32.22.47.47,0,0,1,.08.38l-.39,1.87A.5.5,0,0,1,55.82,26.74Zm.39-2.53a.16.16,0,0,0-.09,0,.16.16,0,0,0-.07.09l-.38,1.87a.17.17,0,0,0,0,.12.18.18,0,0,0,.1.07.14.14,0,0,0,.12,0,.13.13,0,0,0,.07-.09l.38-1.87a.17.17,0,0,0,0-.12.18.18,0,0,0-.1-.07Z" fill="#51fa7b"/></g><g id="Layer_11" data-name="Layer 11"><path d="M56.28,36.72a6.34,6.34,0,0,1-1.19-5.11,10.8,10.8,0,0,1,2.87-6,15.34,15.34,0,0,0,2-1.93c1.94-2.49,1.66-4.61,3.05-5.17a2.41,2.41,0,0,1,2,.22,1.29,1.29,0,0,1,.7,1.28,5.39,5.39,0,0,0,.57,2.88c.45.83.82.91,1.58,1.84a10.91,10.91,0,0,1,2.06,4.58,12.92,12.92,0,0,1,.26,4.27.51.51,0,0,1,0,.17A8.27,8.27,0,0,1,65.9,39,7.87,7.87,0,0,1,59,38.88a8.35,8.35,0,0,1-2.34-1.69C56.55,37,56.41,36.88,56.28,36.72Z" fill="#dfe283"/><path d="M70,29.85,57.72,38.09a8.1,8.1,0,0,0,5,1.64,8,8,0,0,0,6-2.93A8.08,8.08,0,0,0,70,29.85Z" fill="#cece7c"/><rect x="63.71" y="16.41" width="0.67" height="2.57" rx="0.33" transform="translate(-1.67 7.86) rotate(-6.93)" fill="#51fa7b"/><path d="M64.16,19.16a.52.52,0,0,1-.51-.45l-.23-1.9a.51.51,0,0,1,.11-.37.46.46,0,0,1,.34-.19.5.5,0,0,1,.57.44l.23,1.89a.52.52,0,0,1-.11.38.46.46,0,0,1-.34.19h-.06Zm-.23-2.56h0a.11.11,0,0,0-.1.06.11.11,0,0,0,0,.11L64,18.66a.17.17,0,0,0,.18.14h0a.11.11,0,0,0,.1-.06.15.15,0,0,0,0-.11l-.23-1.9A.15.15,0,0,0,63.93,16.6Z" fill="#51fa7b"/></g><g id="Layer_8" data-name="Layer 8"><circle cx="56.02" cy="36.97" r="11.19" fill="#ffb86c"/><path d="M54.49,41.22s9.73-.68,12.41-6.84c0,0,1.28,6-1.53,7.74S54.49,41.22,54.49,41.22Z" fill="#e29f61"/></g><g id="Layer_12" data-name="Layer 12"><path d="M20.88,31.58s-.91.3-1.4-.1a2,2,0,0,1-.63-1,1.39,1.39,0,0,1,2,1.08Z" fill="#51fa7b"/><path d="M20.19,31.81a1.21,1.21,0,0,1-.79-.24,1.93,1.93,0,0,1-.67-1,.12.12,0,0,1,.06-.14,1.64,1.64,0,0,1,1.42,0A1.6,1.6,0,0,1,21,31.56a.13.13,0,0,1-.08.14A2.5,2.5,0,0,1,20.19,31.81ZM19,30.57a1.78,1.78,0,0,0,.56.81,1.45,1.45,0,0,0,1.17.11,1.34,1.34,0,0,0-.64-.88A1.38,1.38,0,0,0,19,30.57Z" fill="#51fa7b"/><path d="M25.74,18.62s.55-.77,1.19-.74a2,2,0,0,1,1.08.43,1.53,1.53,0,0,1-1.05.76A1.5,1.5,0,0,1,25.74,18.62Z" fill="#51fa7b"/><path d="M26.78,19.21a1.71,1.71,0,0,1-1.14-.5.14.14,0,0,1,0-.16s.6-.84,1.31-.79a2,2,0,0,1,1.15.46.11.11,0,0,1,0,.15A1.64,1.64,0,0,1,27,19.2Zm-.88-.6a1.38,1.38,0,0,0,1,.34,1.4,1.4,0,0,0,.91-.61,1.85,1.85,0,0,0-.92-.33h0A1.52,1.52,0,0,0,25.9,18.61Z" fill="#51fa7b"/><path d="M25.57,18.3s-.31-.9.08-1.4a1.9,1.9,0,0,1,1-.64,1.38,1.38,0,0,1-1.05,2Z" fill="#51fa7b"/><path d="M25.57,18.42a.13.13,0,0,1-.12-.08,1.83,1.83,0,0,1,.11-1.52,2,2,0,0,1,1-.68.12.12,0,0,1,.14.06,1.65,1.65,0,0,1,0,1.42,1.6,1.6,0,0,1-1.16.8Zm1-2a1.82,1.82,0,0,0-.8.56,1.46,1.46,0,0,0-.09,1.18,1.35,1.35,0,0,0,.87-.65A1.4,1.4,0,0,0,26.55,16.41Z" fill="#51fa7b"/><path d="M50.28,19s.26-.91.87-1.1a2,2,0,0,1,1.16,0A1.54,1.54,0,0,1,51.58,19,1.5,1.5,0,0,1,50.28,19Z" fill="#51fa7b"/><path d="M51,19.27a1.73,1.73,0,0,1-.74-.17.11.11,0,0,1-.06-.14s.29-1,1-1.19a2.08,2.08,0,0,1,1.24,0,.11.11,0,0,1,.07.13,1.63,1.63,0,0,1-.79,1.17A1.47,1.47,0,0,1,51,19.27Zm-.53-.35a1.33,1.33,0,0,0,1.09,0,1.37,1.37,0,0,0,.65-.88,1.86,1.86,0,0,0-1,0C50.76,18.14,50.52,18.69,50.43,18.92Z" fill="#51fa7b"/><path d="M38.28,22.48s.15-.95.73-1.21a1.9,1.9,0,0,1,1.15-.11,1.52,1.52,0,0,1-.59,1.16A1.54,1.54,0,0,1,38.28,22.48Z" fill="#51fa7b"/><path d="M38.79,22.68a1.57,1.57,0,0,1-.55-.09.11.11,0,0,1-.08-.13s.16-1,.8-1.3A2,2,0,0,1,40.19,21a.12.12,0,0,1,.1.12,1.65,1.65,0,0,1-.64,1.26A1.5,1.5,0,0,1,38.79,22.68Zm-.36-.29a1.39,1.39,0,0,0,1.07-.17,1.34,1.34,0,0,0,.53-1,1.86,1.86,0,0,0-1,.13A1.47,1.47,0,0,0,38.43,22.39Z" fill="#51fa7b"/><path d="M56.23,24.6s-.95-.11-1.23-.68a1.92,1.92,0,0,1-.15-1.15,1.38,1.38,0,0,1,1.38,1.83Z" fill="#51fa7b"/><path d="M56.23,24.73h0s-1-.13-1.32-.76a2.09,2.09,0,0,1-.17-1.23.15.15,0,0,1,.12-.1,1.51,1.51,0,0,1,1.51,2A.14.14,0,0,1,56.23,24.73ZM55,22.9a1.8,1.8,0,0,0,.16,1,1.5,1.5,0,0,0,1,.6,1.38,1.38,0,0,0-.2-1.07A1.36,1.36,0,0,0,55,22.9Z" fill="#51fa7b"/><path d="M70.93,18.93s-.94-.11-1.22-.69a1.94,1.94,0,0,1-.16-1.14,1.52,1.52,0,0,1,1.18.54A1.54,1.54,0,0,1,70.93,18.93Z" fill="#51fa7b"/><path d="M70.93,19.06h0s-1-.12-1.33-.75a2,2,0,0,1-.16-1.23.12.12,0,0,1,.11-.1,1.65,1.65,0,0,1,1.29.6,1.63,1.63,0,0,1,.22,1.4A.13.13,0,0,1,70.93,19.06Zm-1.27-1.83a1.8,1.8,0,0,0,.16,1,1.46,1.46,0,0,0,1,.6,1.39,1.39,0,0,0-.21-1.07A1.32,1.32,0,0,0,69.66,17.23Z" fill="#51fa7b"/><path d="M50.33,18.43s-.68-.66-.56-1.29a1.92,1.92,0,0,1,.56-1,1.38,1.38,0,0,1,0,2.3Z" fill="#51fa7b"/><path d="M50.33,18.55a.11.11,0,0,1-.08,0s-.74-.72-.6-1.4a1.93,1.93,0,0,1,.6-1.08.14.14,0,0,1,.16,0,1.66,1.66,0,0,1,.66,1.25,1.68,1.68,0,0,1-.66,1.25Zm0-2.25a1.81,1.81,0,0,0-.45.87,1.49,1.49,0,0,0,.46,1.09,1.39,1.39,0,0,0,.47-1A1.35,1.35,0,0,0,50.34,16.3Z" fill="#51fa7b"/><path d="M71.2,31s-.53-.79-.28-1.38a1.93,1.93,0,0,1,.76-.87A1.53,1.53,0,0,1,72,30,1.55,1.55,0,0,1,71.2,31Z" fill="#51fa7b"/><path d="M71.2,31.07a.12.12,0,0,1-.1-.05,1.88,1.88,0,0,1-.3-1.5,2,2,0,0,1,.82-.93.12.12,0,0,1,.15,0A1.69,1.69,0,0,1,72.16,30a1.64,1.64,0,0,1-.91,1.08Zm.45-2.21a1.88,1.88,0,0,0-.62.76,1.45,1.45,0,0,0,.22,1.16,1.24,1.24,0,0,0,.4-1.92Z" fill="#51fa7b"/><path d="M63.7,16.79s.07-.95.63-1.26a1.91,1.91,0,0,1,1.14-.21,1.53,1.53,0,0,1-.49,1.2A1.55,1.55,0,0,1,63.7,16.79Z" fill="#51fa7b"/><path d="M64.08,17a2.38,2.38,0,0,1-.41,0,.13.13,0,0,1-.09-.13s.08-1,.69-1.36a2.07,2.07,0,0,1,1.22-.23.12.12,0,0,1,.1.12,1.63,1.63,0,0,1-.53,1.31A1.52,1.52,0,0,1,64.08,17Zm-.24-.26a1.39,1.39,0,0,0,1.06-.26,1.33,1.33,0,0,0,.44-1,1.83,1.83,0,0,0-1,.21A1.48,1.48,0,0,0,63.84,16.69Z" fill="#51fa7b"/><path d="M70.85,31s-1,0-1.3-.55a1.91,1.91,0,0,1-.27-1.13A1.39,1.39,0,0,1,70.85,31Z" fill="#51fa7b"/><path d="M70.84,31.12h0a1.84,1.84,0,0,1-1.39-.61,2.11,2.11,0,0,1-.3-1.21.13.13,0,0,1,.11-.11,1.65,1.65,0,0,1,1.34.46A1.68,1.68,0,0,1,71,31,.13.13,0,0,1,70.84,31.12ZM69.4,29.43a1.8,1.8,0,0,0,.26.94,1.45,1.45,0,0,0,1.08.49,1.42,1.42,0,0,0-.32-1,1.37,1.37,0,0,0-1-.39Z" fill="#51fa7b"/></g><g id="Layer_2" data-name="Layer 2"><path d="M11.38,51.19A34.48,34.48,0,0,0,29.24,83.33c11.14,6.3,27.71,8.14,40.46-.62A31.32,31.32,0,0,0,83,51.19" fill="#be93f9"/><path d="M49.76,89.16A43.16,43.16,0,0,1,29,83.77C17,77,10,64.48,10.88,51.16l1,.06c-.82,12.94,5.93,25.07,17.61,31.68,10.65,6,27.14,8.18,39.93-.6a30.71,30.71,0,0,0,13.07-31l1-.18A31.7,31.7,0,0,1,70,83.13,35.43,35.43,0,0,1,49.76,89.16Z" fill="#f8f8f2"/><path d="M12.12,51.26l70.19-.07a5.72,5.72,0,0,1,0,4.38c-1.47,2.86-6.19,3-9.23,3-11.61.16-20.36-.21-24.4-.29-7.57-.15-8.74.55-21.24.39-8-.11-13.85-.47-15.31-3.8A5.29,5.29,0,0,1,12.12,51.26Z" fill="#9a7ace"/><path d="M80.47,52.13H14.2A5.17,5.17,0,0,1,9,47H9a5.17,5.17,0,0,1,5.17-5.17H80.47A5.17,5.17,0,0,1,85.64,47h0A5.16,5.16,0,0,1,80.47,52.13Z" fill="#be93f9"/><path d="M80.47,52.63H14.2a5.67,5.67,0,1,1,0-11.34H80.47a5.67,5.67,0,0,1,0,11.34ZM14.2,42.29a4.67,4.67,0,1,0,0,9.34H80.47a4.67,4.67,0,0,0,0-9.34Z" fill="#f8f8f2"/><rect x="72.07" y="44.34" width="9.13" height="0.57" rx="0.28" fill="#f8f8f2"/><path d="M80.91,45.17H72.35a.55.55,0,1,1,0-1.09h8.56a.55.55,0,1,1,0,1.09Zm-8.56-.56,8.56,0s0,0,0,0Z" fill="#f8f8f2"/><circle cx="70.87" cy="44.63" r="0.39" fill="#f8f8f2"/><path d="M70.87,45.37a.75.75,0,1,1,.74-.75A.74.74,0,0,1,70.87,45.37Zm0-.77,0,0S70.89,44.6,70.87,44.6Z" fill="#f8f8f2"/><rect x="25.32" y="61.75" width="2.3" height="13.3" rx="0.82" fill="#f8f8f2"/><path d="M26.8,75.17h-.66a.94.94,0,0,1-.94-.94V62.57a1,1,0,0,1,.94-1h.66a1,1,0,0,1,.95,1V74.23A1,1,0,0,1,26.8,75.17Zm-.66-13.3a.7.7,0,0,0-.69.7V74.23a.69.69,0,0,0,.69.69h.66a.69.69,0,0,0,.7-.69V62.57a.7.7,0,0,0-.7-.7Z" fill="#f8f8f2"/><rect x="40.66" y="61.75" width="2.3" height="13.3" rx="0.82" fill="#f8f8f2"/><path d="M42.14,75.17h-.66a1,1,0,0,1-.95-.94V62.57a1,1,0,0,1,.95-1h.66a1,1,0,0,1,.94,1V74.23A.94.94,0,0,1,42.14,75.17Zm-.66-13.3a.7.7,0,0,0-.7.7V74.23a.69.69,0,0,0,.7.69h.66a.69.69,0,0,0,.69-.69V62.57a.7.7,0,0,0-.69-.7Z" fill="#f8f8f2"/><rect x="55.99" y="61.75" width="2.3" height="13.3" rx="0.82" fill="#f8f8f2"/><path d="M57.47,75.17h-.66a.94.94,0,0,1-.94-.94V62.57a1,1,0,0,1,.94-1h.66a1,1,0,0,1,1,1V74.23A.94.94,0,0,1,57.47,75.17Zm-.66-13.3a.7.7,0,0,0-.69.7V74.23a.69.69,0,0,0,.69.69h.66a.69.69,0,0,0,.7-.69V62.57a.7.7,0,0,0-.7-.7Z" fill="#f8f8f2"/><rect x="71.33" y="61.75" width="2.3" height="13.3" rx="0.82" fill="#f8f8f2"/><path d="M72.81,75.17h-.66a1,1,0,0,1-1-.94V62.57a1,1,0,0,1,1-1h.66a1,1,0,0,1,.94,1V74.23A.94.94,0,0,1,72.81,75.17Zm-.66-13.3a.7.7,0,0,0-.7.7V74.23a.69.69,0,0,0,.7.69h.66a.69.69,0,0,0,.69-.69V62.57a.7.7,0,0,0-.69-.7Z" fill="#f8f8f2"/></g></svg>